<mxfile host="app.diagrams.net" modified="2023-11-07T15:00:38.833Z" agent="Mozilla/5.0 (X11; Linux x86_64) AppleWebKit/537.36 (KHTML, like Gecko) Chrome/118.0.0.0 Safari/537.36" etag="D6QktSlDPIJrC4Dg2Col" version="22.0.8" type="google">
  <diagram name="010-data-management" id="O0EzCrE9_i2seC9WDiSg">
    <mxGraphModel grid="1" page="1" gridSize="10" guides="1" tooltips="1" connect="1" arrows="1" fold="1" pageScale="1" pageWidth="827" pageHeight="1169" math="0" shadow="0">
      <root>
        <mxCell id="0" />
        <mxCell id="1" parent="0" />
        <mxCell id="VSZ_r1YbwB4cjB5XSmfl-58" value="&lt;div&gt;&lt;i&gt;This work is licensed under a&lt;/i&gt;&lt;/div&gt;&lt;div&gt;&lt;b&gt;&lt;i&gt;Creative Commons Attribution 4.0 International License&lt;/i&gt;&lt;/b&gt;&lt;/div&gt;" style="text;html=1;strokeColor=none;fillColor=none;align=center;verticalAlign=middle;whiteSpace=wrap;rounded=0;fontSize=20;fontFamily=Architects Daughter;" vertex="1" parent="1">
          <mxGeometry x="-92.63" y="1050" width="970" height="60" as="geometry" />
        </mxCell>
        <mxCell id="aHY94LuDdBdMtoXxMUIO-1" value="" style="triangle;whiteSpace=wrap;html=1;sketch=1;hachureGap=4;jiggle=2;curveFitting=1;fontFamily=Architects Daughter;fontSource=https%3A%2F%2Ffonts.googleapis.com%2Fcss%3Ffamily%3DArchitects%2BDaughter;fontSize=20;rotation=-90;fillColor=#fff2cc;fillStyle=auto;strokeColor=#d6b656;" vertex="1" parent="1">
          <mxGeometry x="271.25" y="20.75" width="250" height="366.5" as="geometry" />
        </mxCell>
        <mxCell id="aHY94LuDdBdMtoXxMUIO-2" value="" style="shape=trapezoid;perimeter=trapezoidPerimeter;whiteSpace=wrap;html=1;fixedSize=1;sketch=1;hachureGap=4;jiggle=2;curveFitting=1;fontFamily=Architects Daughter;fontSource=https%3A%2F%2Ffonts.googleapis.com%2Fcss%3Ffamily%3DArchitects%2BDaughter;fontSize=20;size=160;fillColor=#d5e8d4;fillStyle=auto;strokeColor=#82b366;" vertex="1" parent="1">
          <mxGeometry x="46.25" y="345" width="700" height="240" as="geometry" />
        </mxCell>
        <mxCell id="aHY94LuDdBdMtoXxMUIO-3" value="" style="shape=trapezoid;perimeter=trapezoidPerimeter;whiteSpace=wrap;html=1;fixedSize=1;sketch=1;hachureGap=4;jiggle=2;curveFitting=1;fontFamily=Architects Daughter;fontSource=https%3A%2F%2Ffonts.googleapis.com%2Fcss%3Ffamily%3DArchitects%2BDaughter;fontSize=20;size=125.61999999999989;fillColor=#ffe6cc;fillStyle=auto;strokeColor=#d79b00;" vertex="1" parent="1">
          <mxGeometry x="-90" y="610" width="970" height="200" as="geometry" />
        </mxCell>
        <mxCell id="aHY94LuDdBdMtoXxMUIO-4" value="" style="rounded=0;whiteSpace=wrap;html=1;sketch=1;hachureGap=4;jiggle=2;curveFitting=1;fontFamily=Architects Daughter;fontSource=https%3A%2F%2Ffonts.googleapis.com%2Fcss%3Ffamily%3DArchitects%2BDaughter;fontSize=20;fillColor=#dae8fc;fillStyle=auto;strokeColor=#6c8ebf;" vertex="1" parent="1">
          <mxGeometry x="-91" y="830" width="971" height="180" as="geometry" />
        </mxCell>
        <mxCell id="aHY94LuDdBdMtoXxMUIO-5" value="&lt;b&gt;&lt;font style=&quot;font-size: 40px;&quot;&gt;Data&lt;/font&gt;&lt;/b&gt;" style="text;html=1;strokeColor=none;fillColor=none;align=center;verticalAlign=middle;whiteSpace=wrap;rounded=0;fontSize=20;fontFamily=Architects Daughter;" vertex="1" parent="1">
          <mxGeometry x="343.77000000000004" y="960" width="60" height="30" as="geometry" />
        </mxCell>
        <mxCell id="aHY94LuDdBdMtoXxMUIO-6" value="&lt;b&gt;&lt;font style=&quot;font-size: 40px;&quot;&gt;Information&lt;br&gt;&lt;/font&gt;&lt;/b&gt;" style="text;html=1;strokeColor=none;fillColor=none;align=center;verticalAlign=middle;whiteSpace=wrap;rounded=0;fontSize=20;fontFamily=Architects Daughter;" vertex="1" parent="1">
          <mxGeometry x="350.97" y="744" width="60" height="30" as="geometry" />
        </mxCell>
        <mxCell id="aHY94LuDdBdMtoXxMUIO-7" value="&lt;b&gt;&lt;font style=&quot;font-size: 40px;&quot;&gt;Knowledge&lt;/font&gt;&lt;/b&gt;" style="text;html=1;strokeColor=none;fillColor=none;align=center;verticalAlign=middle;whiteSpace=wrap;rounded=0;fontSize=20;fontFamily=Architects Daughter;" vertex="1" parent="1">
          <mxGeometry x="354" y="510" width="60" height="30" as="geometry" />
        </mxCell>
        <mxCell id="aHY94LuDdBdMtoXxMUIO-8" value="&lt;b&gt;&lt;font style=&quot;font-size: 40px;&quot;&gt;Intelligence&lt;br&gt;&lt;/font&gt;&lt;/b&gt;" style="text;html=1;strokeColor=none;fillColor=none;align=center;verticalAlign=middle;whiteSpace=wrap;rounded=0;fontSize=20;fontFamily=Architects Daughter;" vertex="1" parent="1">
          <mxGeometry x="364.5" y="263.85" width="60" height="30" as="geometry" />
        </mxCell>
        <mxCell id="aHY94LuDdBdMtoXxMUIO-9" value="" style="curved=1;endArrow=block;html=1;rounded=0;sketch=1;hachureGap=4;jiggle=2;curveFitting=1;fontFamily=Architects Daughter;fontSource=https%3A%2F%2Ffonts.googleapis.com%2Fcss%3Ffamily%3DArchitects%2BDaughter;fontSize=16;exitX=0;exitY=0.5;exitDx=0;exitDy=0;endFill=1;entryX=0.072;entryY=0.423;entryDx=0;entryDy=0;entryPerimeter=0;dashed=1;strokeWidth=2;" edge="1" parent="1" source="aHY94LuDdBdMtoXxMUIO-4" target="aHY94LuDdBdMtoXxMUIO-3">
          <mxGeometry width="50" height="50" relative="1" as="geometry">
            <mxPoint x="-167" y="825" as="sourcePoint" />
            <mxPoint x="-40" y="685" as="targetPoint" />
            <Array as="points">
              <mxPoint x="-180" y="800" />
              <mxPoint x="-170" y="685" />
            </Array>
          </mxGeometry>
        </mxCell>
        <mxCell id="aHY94LuDdBdMtoXxMUIO-10" value="&lt;font style=&quot;font-size: 28px;&quot;&gt;Context&lt;/font&gt;" style="text;html=1;strokeColor=none;fillColor=default;align=center;verticalAlign=middle;whiteSpace=wrap;rounded=0;fontSize=28;fontFamily=Architects Daughter;fontStyle=1;labelBackgroundColor=#FFE6CC;" vertex="1" parent="1">
          <mxGeometry x="-151" y="650" width="60" height="30" as="geometry" />
        </mxCell>
        <mxCell id="aHY94LuDdBdMtoXxMUIO-11" value="" style="curved=1;endArrow=block;html=1;rounded=0;sketch=1;hachureGap=4;jiggle=2;curveFitting=1;fontFamily=Architects Daughter;fontSource=https%3A%2F%2Ffonts.googleapis.com%2Fcss%3Ffamily%3DArchitects%2BDaughter;fontSize=16;endFill=1;exitX=0.082;exitY=0.343;exitDx=0;exitDy=0;exitPerimeter=0;dashed=1;strokeWidth=2;" edge="1" parent="1" source="aHY94LuDdBdMtoXxMUIO-3" target="aHY94LuDdBdMtoXxMUIO-2">
          <mxGeometry width="50" height="50" relative="1" as="geometry">
            <mxPoint x="-20" y="680" as="sourcePoint" />
            <mxPoint x="60" y="480" as="targetPoint" />
            <Array as="points">
              <mxPoint x="-100" y="560" />
              <mxPoint x="-50" y="480" />
            </Array>
          </mxGeometry>
        </mxCell>
        <mxCell id="aHY94LuDdBdMtoXxMUIO-12" value="&lt;font style=&quot;font-size: 28px;&quot;&gt;Meaning&lt;/font&gt;" style="text;html=1;strokeColor=none;fillColor=none;align=center;verticalAlign=middle;whiteSpace=wrap;rounded=0;fontSize=28;fontFamily=Architects Daughter;fontStyle=1;labelBackgroundColor=#D5E8D4;" vertex="1" parent="1">
          <mxGeometry x="-60" y="430" width="60" height="30" as="geometry" />
        </mxCell>
        <mxCell id="aHY94LuDdBdMtoXxMUIO-13" value="" style="curved=1;endArrow=block;html=1;rounded=0;sketch=1;hachureGap=4;jiggle=2;curveFitting=1;fontFamily=Architects Daughter;fontSource=https%3A%2F%2Ffonts.googleapis.com%2Fcss%3Ffamily%3DArchitects%2BDaughter;fontSize=16;endFill=1;exitX=0.13;exitY=0.429;exitDx=0;exitDy=0;exitPerimeter=0;dashed=1;strokeWidth=2;entryX=0.303;entryY=0.143;entryDx=0;entryDy=0;entryPerimeter=0;" edge="1" parent="1" source="aHY94LuDdBdMtoXxMUIO-2" target="aHY94LuDdBdMtoXxMUIO-1">
          <mxGeometry width="50" height="50" relative="1" as="geometry">
            <mxPoint x="136.25" y="450" as="sourcePoint" />
            <mxPoint x="266.25" y="245" as="targetPoint" />
            <Array as="points">
              <mxPoint x="46.25" y="331" />
              <mxPoint x="96.25" y="251" />
            </Array>
          </mxGeometry>
        </mxCell>
        <mxCell id="aHY94LuDdBdMtoXxMUIO-14" value="&lt;font style=&quot;font-size: 28px;&quot;&gt;Actions&lt;/font&gt;" style="text;html=1;strokeColor=none;fillColor=none;align=center;verticalAlign=middle;whiteSpace=wrap;rounded=0;fontSize=28;fontFamily=Architects Daughter;fontStyle=1;labelBackgroundColor=#FFF2CC;" vertex="1" parent="1">
          <mxGeometry x="80" y="210" width="60" height="30" as="geometry" />
        </mxCell>
        <mxCell id="aHY94LuDdBdMtoXxMUIO-15" value="&lt;font style=&quot;font-size: 28px;&quot;&gt;Insights&lt;br&gt;&lt;/font&gt;" style="text;html=1;strokeColor=none;fillColor=none;align=left;verticalAlign=middle;whiteSpace=wrap;rounded=0;fontSize=28;fontFamily=Architects Daughter;fontStyle=1" vertex="1" parent="1">
          <mxGeometry x="610" y="248.85" width="230" height="30" as="geometry" />
        </mxCell>
        <mxCell id="aHY94LuDdBdMtoXxMUIO-16" value="" style="shape=orEllipse;perimeter=ellipsePerimeter;whiteSpace=wrap;html=1;backgroundOutline=1;sketch=1;hachureGap=4;jiggle=2;curveFitting=1;fontFamily=Architects Daughter;fontSource=https%3A%2F%2Ffonts.googleapis.com%2Fcss%3Ffamily%3DArchitects%2BDaughter;fontSize=20;fillColor=#CCCCCC;strokeWidth=2;" vertex="1" parent="1">
          <mxGeometry x="500" y="223.85" width="80" height="80" as="geometry" />
        </mxCell>
        <mxCell id="aHY94LuDdBdMtoXxMUIO-17" value="" style="shape=image;html=1;verticalLabelPosition=bottom;verticalAlign=top;imageAspect=0;image=img/clipart/Gear_128x128.png;sketch=1;hachureGap=4;jiggle=2;curveFitting=1;fontFamily=Architects Daughter;fontSource=https%3A%2F%2Ffonts.googleapis.com%2Fcss%3Ffamily%3DArchitects%2BDaughter;fontSize=20;" vertex="1" parent="1">
          <mxGeometry x="559" y="278.85" width="50" height="60" as="geometry" />
        </mxCell>
        <mxCell id="aHY94LuDdBdMtoXxMUIO-18" value="&lt;font style=&quot;font-size: 28px;&quot;&gt;AI Models&lt;br&gt;&lt;/font&gt;" style="text;html=1;strokeColor=none;fillColor=none;align=left;verticalAlign=middle;whiteSpace=wrap;rounded=0;fontSize=28;fontFamily=Architects Daughter;fontStyle=2" vertex="1" parent="1">
          <mxGeometry x="627" y="293.85" width="280" height="30" as="geometry" />
        </mxCell>
        <mxCell id="aHY94LuDdBdMtoXxMUIO-19" value="" style="shape=image;html=1;verticalLabelPosition=bottom;verticalAlign=top;imageAspect=0;image=img/clipart/Gear_128x128.png;sketch=1;hachureGap=4;jiggle=2;curveFitting=1;fontFamily=Architects Daughter;fontSource=https%3A%2F%2Ffonts.googleapis.com%2Fcss%3Ffamily%3DArchitects%2BDaughter;fontSize=20;" vertex="1" parent="1">
          <mxGeometry x="840" y="887.63" width="50" height="60" as="geometry" />
        </mxCell>
        <mxCell id="aHY94LuDdBdMtoXxMUIO-20" value="&lt;font style=&quot;font-size: 28px;&quot;&gt;Storage Systems&lt;br&gt;&lt;/font&gt;" style="text;html=1;strokeColor=none;fillColor=none;align=center;verticalAlign=middle;whiteSpace=wrap;rounded=0;fontSize=28;fontFamily=Architects Daughter;fontStyle=2" vertex="1" parent="1">
          <mxGeometry x="907" y="881.38" width="160" height="65" as="geometry" />
        </mxCell>
        <mxCell id="aHY94LuDdBdMtoXxMUIO-21" value="" style="html=1;verticalLabelPosition=bottom;align=center;labelBackgroundColor=#ffffff;verticalAlign=top;strokeWidth=3;strokeColor=#666600;shadow=0;dashed=0;shape=mxgraph.ios7.icons.lightbulb;hachureGap=4;fontFamily=Architects Daughter;fontSource=https%3A%2F%2Ffonts.googleapis.com%2Fcss%3Ffamily%3DArchitects%2BDaughter;fontSize=20;" vertex="1" parent="1">
          <mxGeometry x="380.97" y="110" width="22.8" height="29.7" as="geometry" />
        </mxCell>
        <mxCell id="aHY94LuDdBdMtoXxMUIO-22" value="" style="ellipse;whiteSpace=wrap;html=1;aspect=fixed;sketch=1;hachureGap=4;jiggle=2;curveFitting=1;fontFamily=Architects Daughter;fontSource=https%3A%2F%2Ffonts.googleapis.com%2Fcss%3Ffamily%3DArchitects%2BDaughter;fontSize=20;fillColor=#808080;" vertex="1" parent="1">
          <mxGeometry x="310.97" y="908.88" width="30" height="30" as="geometry" />
        </mxCell>
        <mxCell id="aHY94LuDdBdMtoXxMUIO-23" value="" style="ellipse;whiteSpace=wrap;html=1;aspect=fixed;sketch=1;hachureGap=4;jiggle=2;curveFitting=1;fontFamily=Architects Daughter;fontSource=https%3A%2F%2Ffonts.googleapis.com%2Fcss%3Ffamily%3DArchitects%2BDaughter;fontSize=20;fillColor=#808080;" vertex="1" parent="1">
          <mxGeometry x="380.97" y="846.13" width="30" height="30" as="geometry" />
        </mxCell>
        <mxCell id="aHY94LuDdBdMtoXxMUIO-24" value="" style="ellipse;whiteSpace=wrap;html=1;aspect=fixed;sketch=1;hachureGap=4;jiggle=2;curveFitting=1;fontFamily=Architects Daughter;fontSource=https%3A%2F%2Ffonts.googleapis.com%2Fcss%3Ffamily%3DArchitects%2BDaughter;fontSize=20;fillColor=#808080;" vertex="1" parent="1">
          <mxGeometry x="360.97" y="888.88" width="30" height="30" as="geometry" />
        </mxCell>
        <mxCell id="aHY94LuDdBdMtoXxMUIO-25" value="" style="ellipse;whiteSpace=wrap;html=1;aspect=fixed;sketch=1;hachureGap=4;jiggle=2;curveFitting=1;fontFamily=Architects Daughter;fontSource=https%3A%2F%2Ffonts.googleapis.com%2Fcss%3Ffamily%3DArchitects%2BDaughter;fontSize=20;fillColor=#808080;" vertex="1" parent="1">
          <mxGeometry x="410.97" y="898.88" width="30" height="30" as="geometry" />
        </mxCell>
        <mxCell id="aHY94LuDdBdMtoXxMUIO-26" value="" style="ellipse;whiteSpace=wrap;html=1;aspect=fixed;sketch=1;hachureGap=4;jiggle=2;curveFitting=1;fontFamily=Architects Daughter;fontSource=https%3A%2F%2Ffonts.googleapis.com%2Fcss%3Ffamily%3DArchitects%2BDaughter;fontSize=20;fillColor=#808080;" vertex="1" parent="1">
          <mxGeometry x="320.97" y="858.88" width="30" height="30" as="geometry" />
        </mxCell>
        <mxCell id="aHY94LuDdBdMtoXxMUIO-27" value="" style="ellipse;whiteSpace=wrap;html=1;aspect=fixed;sketch=1;hachureGap=4;jiggle=2;curveFitting=1;fontFamily=Architects Daughter;fontSource=https%3A%2F%2Ffonts.googleapis.com%2Fcss%3Ffamily%3DArchitects%2BDaughter;fontSize=20;fillColor=#f8cecc;strokeColor=#b85450;" vertex="1" parent="1">
          <mxGeometry x="310.97" y="689.75" width="30" height="30" as="geometry" />
        </mxCell>
        <mxCell id="aHY94LuDdBdMtoXxMUIO-28" value="" style="ellipse;whiteSpace=wrap;html=1;aspect=fixed;sketch=1;hachureGap=4;jiggle=2;curveFitting=1;fontFamily=Architects Daughter;fontSource=https%3A%2F%2Ffonts.googleapis.com%2Fcss%3Ffamily%3DArchitects%2BDaughter;fontSize=20;fillColor=#6a00ff;fontColor=#ffffff;strokeColor=#3700CC;" vertex="1" parent="1">
          <mxGeometry x="380.97" y="627" width="30" height="30" as="geometry" />
        </mxCell>
        <mxCell id="aHY94LuDdBdMtoXxMUIO-29" value="" style="ellipse;whiteSpace=wrap;html=1;aspect=fixed;sketch=1;hachureGap=4;jiggle=2;curveFitting=1;fontFamily=Architects Daughter;fontSource=https%3A%2F%2Ffonts.googleapis.com%2Fcss%3Ffamily%3DArchitects%2BDaughter;fontSize=20;fillColor=#f0a30a;fontColor=#000000;strokeColor=#BD7000;" vertex="1" parent="1">
          <mxGeometry x="360.97" y="669.75" width="30" height="30" as="geometry" />
        </mxCell>
        <mxCell id="aHY94LuDdBdMtoXxMUIO-30" value="" style="ellipse;whiteSpace=wrap;html=1;aspect=fixed;sketch=1;hachureGap=4;jiggle=2;curveFitting=1;fontFamily=Architects Daughter;fontSource=https%3A%2F%2Ffonts.googleapis.com%2Fcss%3Ffamily%3DArchitects%2BDaughter;fontSize=20;fillColor=#e1d5e7;strokeColor=#9673a6;" vertex="1" parent="1">
          <mxGeometry x="410.97" y="679.75" width="30" height="30" as="geometry" />
        </mxCell>
        <mxCell id="aHY94LuDdBdMtoXxMUIO-31" value="" style="ellipse;whiteSpace=wrap;html=1;aspect=fixed;sketch=1;hachureGap=4;jiggle=2;curveFitting=1;fontFamily=Architects Daughter;fontSource=https%3A%2F%2Ffonts.googleapis.com%2Fcss%3Ffamily%3DArchitects%2BDaughter;fontSize=20;fillColor=#d80073;fontColor=#ffffff;strokeColor=#A50040;" vertex="1" parent="1">
          <mxGeometry x="320.97" y="639.75" width="30" height="30" as="geometry" />
        </mxCell>
        <mxCell id="aHY94LuDdBdMtoXxMUIO-32" style="edgeStyle=none;rounded=0;sketch=1;hachureGap=4;jiggle=2;curveFitting=1;orthogonalLoop=1;jettySize=auto;html=1;entryX=0.5;entryY=1;entryDx=0;entryDy=0;fontFamily=Architects Daughter;fontSource=https%3A%2F%2Ffonts.googleapis.com%2Fcss%3Ffamily%3DArchitects%2BDaughter;fontSize=16;" edge="1" parent="1" source="aHY94LuDdBdMtoXxMUIO-33" target="aHY94LuDdBdMtoXxMUIO-41">
          <mxGeometry relative="1" as="geometry" />
        </mxCell>
        <mxCell id="aHY94LuDdBdMtoXxMUIO-33" value="" style="ellipse;whiteSpace=wrap;html=1;aspect=fixed;sketch=1;hachureGap=4;jiggle=2;curveFitting=1;fontFamily=Architects Daughter;fontSource=https%3A%2F%2Ffonts.googleapis.com%2Fcss%3Ffamily%3DArchitects%2BDaughter;fontSize=20;fillColor=#f8cecc;strokeColor=#b85450;" vertex="1" parent="1">
          <mxGeometry x="320.97" y="442.75" width="30" height="30" as="geometry" />
        </mxCell>
        <mxCell id="aHY94LuDdBdMtoXxMUIO-34" value="" style="ellipse;whiteSpace=wrap;html=1;aspect=fixed;sketch=1;hachureGap=4;jiggle=2;curveFitting=1;fontFamily=Architects Daughter;fontSource=https%3A%2F%2Ffonts.googleapis.com%2Fcss%3Ffamily%3DArchitects%2BDaughter;fontSize=20;fillColor=#6a00ff;fontColor=#ffffff;strokeColor=#3700CC;" vertex="1" parent="1">
          <mxGeometry x="390.97" y="380" width="30" height="30" as="geometry" />
        </mxCell>
        <mxCell id="aHY94LuDdBdMtoXxMUIO-35" style="edgeStyle=none;rounded=0;sketch=1;hachureGap=4;jiggle=2;curveFitting=1;orthogonalLoop=1;jettySize=auto;html=1;entryX=1;entryY=0.5;entryDx=0;entryDy=0;fontFamily=Architects Daughter;fontSource=https%3A%2F%2Ffonts.googleapis.com%2Fcss%3Ffamily%3DArchitects%2BDaughter;fontSize=16;" edge="1" parent="1" source="aHY94LuDdBdMtoXxMUIO-37" target="aHY94LuDdBdMtoXxMUIO-33">
          <mxGeometry relative="1" as="geometry" />
        </mxCell>
        <mxCell id="aHY94LuDdBdMtoXxMUIO-36" style="edgeStyle=none;rounded=0;sketch=1;hachureGap=4;jiggle=2;curveFitting=1;orthogonalLoop=1;jettySize=auto;html=1;entryX=0;entryY=1;entryDx=0;entryDy=0;fontFamily=Architects Daughter;fontSource=https%3A%2F%2Ffonts.googleapis.com%2Fcss%3Ffamily%3DArchitects%2BDaughter;fontSize=16;" edge="1" parent="1" source="aHY94LuDdBdMtoXxMUIO-37" target="aHY94LuDdBdMtoXxMUIO-34">
          <mxGeometry relative="1" as="geometry" />
        </mxCell>
        <mxCell id="aHY94LuDdBdMtoXxMUIO-37" value="" style="ellipse;whiteSpace=wrap;html=1;aspect=fixed;sketch=1;hachureGap=4;jiggle=2;curveFitting=1;fontFamily=Architects Daughter;fontSource=https%3A%2F%2Ffonts.googleapis.com%2Fcss%3Ffamily%3DArchitects%2BDaughter;fontSize=20;fillColor=#f0a30a;fontColor=#000000;strokeColor=#BD7000;" vertex="1" parent="1">
          <mxGeometry x="370.97" y="422.75" width="30" height="30" as="geometry" />
        </mxCell>
        <mxCell id="aHY94LuDdBdMtoXxMUIO-38" style="edgeStyle=none;rounded=0;sketch=1;hachureGap=4;jiggle=2;curveFitting=1;orthogonalLoop=1;jettySize=auto;html=1;entryX=1;entryY=1;entryDx=0;entryDy=0;fontFamily=Architects Daughter;fontSource=https%3A%2F%2Ffonts.googleapis.com%2Fcss%3Ffamily%3DArchitects%2BDaughter;fontSize=16;" edge="1" parent="1" source="aHY94LuDdBdMtoXxMUIO-39" target="aHY94LuDdBdMtoXxMUIO-34">
          <mxGeometry relative="1" as="geometry" />
        </mxCell>
        <mxCell id="aHY94LuDdBdMtoXxMUIO-39" value="" style="ellipse;whiteSpace=wrap;html=1;aspect=fixed;sketch=1;hachureGap=4;jiggle=2;curveFitting=1;fontFamily=Architects Daughter;fontSource=https%3A%2F%2Ffonts.googleapis.com%2Fcss%3Ffamily%3DArchitects%2BDaughter;fontSize=20;fillColor=#e1d5e7;strokeColor=#9673a6;" vertex="1" parent="1">
          <mxGeometry x="420.97" y="432.75" width="30" height="30" as="geometry" />
        </mxCell>
        <mxCell id="aHY94LuDdBdMtoXxMUIO-40" style="edgeStyle=none;rounded=0;sketch=1;hachureGap=4;jiggle=2;curveFitting=1;orthogonalLoop=1;jettySize=auto;html=1;entryX=0;entryY=0.5;entryDx=0;entryDy=0;fontFamily=Architects Daughter;fontSource=https%3A%2F%2Ffonts.googleapis.com%2Fcss%3Ffamily%3DArchitects%2BDaughter;fontSize=16;" edge="1" parent="1" source="aHY94LuDdBdMtoXxMUIO-41" target="aHY94LuDdBdMtoXxMUIO-34">
          <mxGeometry relative="1" as="geometry" />
        </mxCell>
        <mxCell id="aHY94LuDdBdMtoXxMUIO-41" value="" style="ellipse;whiteSpace=wrap;html=1;aspect=fixed;sketch=1;hachureGap=4;jiggle=2;curveFitting=1;fontFamily=Architects Daughter;fontSource=https%3A%2F%2Ffonts.googleapis.com%2Fcss%3Ffamily%3DArchitects%2BDaughter;fontSize=20;fillColor=#d80073;fontColor=#ffffff;strokeColor=#A50040;" vertex="1" parent="1">
          <mxGeometry x="330.97" y="392.75" width="30" height="30" as="geometry" />
        </mxCell>
        <mxCell id="aHY94LuDdBdMtoXxMUIO-42" style="edgeStyle=none;rounded=0;sketch=1;hachureGap=4;jiggle=2;curveFitting=1;orthogonalLoop=1;jettySize=auto;html=1;entryX=0.5;entryY=1;entryDx=0;entryDy=0;fontFamily=Architects Daughter;fontSource=https%3A%2F%2Ffonts.googleapis.com%2Fcss%3Ffamily%3DArchitects%2BDaughter;fontSize=16;strokeColor=#666600;strokeWidth=2;" edge="1" parent="1" source="aHY94LuDdBdMtoXxMUIO-43" target="aHY94LuDdBdMtoXxMUIO-51">
          <mxGeometry relative="1" as="geometry" />
        </mxCell>
        <mxCell id="aHY94LuDdBdMtoXxMUIO-43" value="" style="ellipse;whiteSpace=wrap;html=1;aspect=fixed;sketch=1;hachureGap=4;jiggle=2;curveFitting=1;fontFamily=Architects Daughter;fontSource=https%3A%2F%2Ffonts.googleapis.com%2Fcss%3Ffamily%3DArchitects%2BDaughter;fontSize=20;fillColor=#f8cecc;strokeColor=#666600;strokeWidth=4;" vertex="1" parent="1">
          <mxGeometry x="331.25" y="212.75" width="30" height="30" as="geometry" />
        </mxCell>
        <mxCell id="aHY94LuDdBdMtoXxMUIO-44" value="" style="ellipse;whiteSpace=wrap;html=1;aspect=fixed;sketch=1;hachureGap=4;jiggle=2;curveFitting=1;fontFamily=Architects Daughter;fontSource=https%3A%2F%2Ffonts.googleapis.com%2Fcss%3Ffamily%3DArchitects%2BDaughter;fontSize=20;fillColor=#6a00ff;fontColor=#ffffff;strokeColor=#666600;strokeWidth=4;" vertex="1" parent="1">
          <mxGeometry x="401.25" y="150" width="30" height="30" as="geometry" />
        </mxCell>
        <mxCell id="aHY94LuDdBdMtoXxMUIO-45" style="edgeStyle=none;rounded=0;sketch=1;hachureGap=4;jiggle=2;curveFitting=1;orthogonalLoop=1;jettySize=auto;html=1;entryX=1;entryY=0.5;entryDx=0;entryDy=0;fontFamily=Architects Daughter;fontSource=https%3A%2F%2Ffonts.googleapis.com%2Fcss%3Ffamily%3DArchitects%2BDaughter;fontSize=16;strokeColor=#B3B3B3;" edge="1" parent="1" source="aHY94LuDdBdMtoXxMUIO-47" target="aHY94LuDdBdMtoXxMUIO-43">
          <mxGeometry relative="1" as="geometry" />
        </mxCell>
        <mxCell id="aHY94LuDdBdMtoXxMUIO-46" style="edgeStyle=none;rounded=0;sketch=1;hachureGap=4;jiggle=2;curveFitting=1;orthogonalLoop=1;jettySize=auto;html=1;entryX=0;entryY=1;entryDx=0;entryDy=0;fontFamily=Architects Daughter;fontSource=https%3A%2F%2Ffonts.googleapis.com%2Fcss%3Ffamily%3DArchitects%2BDaughter;fontSize=16;strokeColor=#B3B3B3;" edge="1" parent="1" source="aHY94LuDdBdMtoXxMUIO-47" target="aHY94LuDdBdMtoXxMUIO-44">
          <mxGeometry relative="1" as="geometry" />
        </mxCell>
        <mxCell id="aHY94LuDdBdMtoXxMUIO-47" value="" style="ellipse;whiteSpace=wrap;html=1;aspect=fixed;sketch=1;hachureGap=4;jiggle=2;curveFitting=1;fontFamily=Architects Daughter;fontSource=https%3A%2F%2Ffonts.googleapis.com%2Fcss%3Ffamily%3DArchitects%2BDaughter;fontSize=20;fillColor=#f0a30a;fontColor=#000000;strokeColor=#BD7000;strokeWidth=1;" vertex="1" parent="1">
          <mxGeometry x="381.25" y="192.75" width="30" height="30" as="geometry" />
        </mxCell>
        <mxCell id="aHY94LuDdBdMtoXxMUIO-48" style="edgeStyle=none;rounded=0;sketch=1;hachureGap=4;jiggle=2;curveFitting=1;orthogonalLoop=1;jettySize=auto;html=1;entryX=1;entryY=1;entryDx=0;entryDy=0;fontFamily=Architects Daughter;fontSource=https%3A%2F%2Ffonts.googleapis.com%2Fcss%3Ffamily%3DArchitects%2BDaughter;fontSize=16;strokeColor=#B3B3B3;" edge="1" parent="1" source="aHY94LuDdBdMtoXxMUIO-49" target="aHY94LuDdBdMtoXxMUIO-44">
          <mxGeometry relative="1" as="geometry" />
        </mxCell>
        <mxCell id="aHY94LuDdBdMtoXxMUIO-49" value="" style="ellipse;whiteSpace=wrap;html=1;aspect=fixed;sketch=1;hachureGap=4;jiggle=2;curveFitting=1;fontFamily=Architects Daughter;fontSource=https%3A%2F%2Ffonts.googleapis.com%2Fcss%3Ffamily%3DArchitects%2BDaughter;fontSize=20;fillColor=#e1d5e7;strokeColor=#9673a6;strokeWidth=1;" vertex="1" parent="1">
          <mxGeometry x="431.25" y="202.75" width="30" height="30" as="geometry" />
        </mxCell>
        <mxCell id="aHY94LuDdBdMtoXxMUIO-50" style="edgeStyle=none;rounded=0;sketch=1;hachureGap=4;jiggle=2;curveFitting=1;orthogonalLoop=1;jettySize=auto;html=1;entryX=0;entryY=0.5;entryDx=0;entryDy=0;fontFamily=Architects Daughter;fontSource=https%3A%2F%2Ffonts.googleapis.com%2Fcss%3Ffamily%3DArchitects%2BDaughter;fontSize=16;strokeColor=#666600;strokeWidth=2;" edge="1" parent="1" source="aHY94LuDdBdMtoXxMUIO-51" target="aHY94LuDdBdMtoXxMUIO-44">
          <mxGeometry relative="1" as="geometry" />
        </mxCell>
        <mxCell id="aHY94LuDdBdMtoXxMUIO-51" value="" style="ellipse;whiteSpace=wrap;html=1;aspect=fixed;sketch=1;hachureGap=4;jiggle=2;curveFitting=1;fontFamily=Architects Daughter;fontSource=https%3A%2F%2Ffonts.googleapis.com%2Fcss%3Ffamily%3DArchitects%2BDaughter;fontSize=20;fillColor=#d80073;fontColor=#ffffff;strokeColor=#666600;strokeWidth=4;" vertex="1" parent="1">
          <mxGeometry x="341.25" y="162.75" width="30" height="30" as="geometry" />
        </mxCell>
        <mxCell id="aHY94LuDdBdMtoXxMUIO-52" value="&lt;font style=&quot;font-size: 28px;&quot;&gt;Relationships&lt;br&gt;&lt;/font&gt;" style="text;html=1;strokeColor=none;fillColor=none;align=left;verticalAlign=middle;whiteSpace=wrap;rounded=0;fontSize=28;fontFamily=Architects Daughter;fontStyle=1" vertex="1" parent="1">
          <mxGeometry x="752.5" y="450" width="230" height="30" as="geometry" />
        </mxCell>
        <mxCell id="aHY94LuDdBdMtoXxMUIO-53" value="" style="shape=orEllipse;perimeter=ellipsePerimeter;whiteSpace=wrap;html=1;backgroundOutline=1;sketch=1;hachureGap=4;jiggle=2;curveFitting=1;fontFamily=Architects Daughter;fontSource=https%3A%2F%2Ffonts.googleapis.com%2Fcss%3Ffamily%3DArchitects%2BDaughter;fontSize=20;fillColor=#CCCCCC;strokeWidth=2;" vertex="1" parent="1">
          <mxGeometry x="641.5" y="425" width="80" height="80" as="geometry" />
        </mxCell>
        <mxCell id="aHY94LuDdBdMtoXxMUIO-54" value="" style="shape=image;html=1;verticalLabelPosition=bottom;verticalAlign=top;imageAspect=0;image=img/clipart/Gear_128x128.png;sketch=1;hachureGap=4;jiggle=2;curveFitting=1;fontFamily=Architects Daughter;fontSource=https%3A%2F%2Ffonts.googleapis.com%2Fcss%3Ffamily%3DArchitects%2BDaughter;fontSize=20;" vertex="1" parent="1">
          <mxGeometry x="700.5" y="480" width="50" height="60" as="geometry" />
        </mxCell>
        <mxCell id="aHY94LuDdBdMtoXxMUIO-55" value="&lt;font style=&quot;font-size: 28px;&quot;&gt;Domain Ontology&lt;br&gt;&lt;/font&gt;" style="text;html=1;strokeColor=none;fillColor=none;align=left;verticalAlign=middle;whiteSpace=wrap;rounded=0;fontSize=28;fontFamily=Architects Daughter;fontStyle=2" vertex="1" parent="1">
          <mxGeometry x="768.5" y="495" width="280" height="30" as="geometry" />
        </mxCell>
        <mxCell id="aHY94LuDdBdMtoXxMUIO-56" value="&lt;font style=&quot;font-size: 28px;&quot;&gt;Metadata&lt;br&gt;&lt;/font&gt;" style="text;html=1;strokeColor=none;fillColor=none;align=left;verticalAlign=middle;whiteSpace=wrap;rounded=0;fontSize=28;fontFamily=Architects Daughter;fontStyle=1" vertex="1" parent="1">
          <mxGeometry x="890" y="684" width="230" height="30" as="geometry" />
        </mxCell>
        <mxCell id="aHY94LuDdBdMtoXxMUIO-57" value="" style="shape=orEllipse;perimeter=ellipsePerimeter;whiteSpace=wrap;html=1;backgroundOutline=1;sketch=1;hachureGap=4;jiggle=2;curveFitting=1;fontFamily=Architects Daughter;fontSource=https%3A%2F%2Ffonts.googleapis.com%2Fcss%3Ffamily%3DArchitects%2BDaughter;fontSize=20;fillColor=#CCCCCC;strokeWidth=2;" vertex="1" parent="1">
          <mxGeometry x="780" y="659" width="80" height="80" as="geometry" />
        </mxCell>
        <mxCell id="aHY94LuDdBdMtoXxMUIO-58" value="" style="shape=image;html=1;verticalLabelPosition=bottom;verticalAlign=top;imageAspect=0;image=img/clipart/Gear_128x128.png;sketch=1;hachureGap=4;jiggle=2;curveFitting=1;fontFamily=Architects Daughter;fontSource=https%3A%2F%2Ffonts.googleapis.com%2Fcss%3Ffamily%3DArchitects%2BDaughter;fontSize=20;" vertex="1" parent="1">
          <mxGeometry x="839" y="714" width="50" height="60" as="geometry" />
        </mxCell>
        <mxCell id="aHY94LuDdBdMtoXxMUIO-59" value="&lt;font style=&quot;font-size: 28px;&quot;&gt;Data Catalogue&lt;br&gt;&lt;/font&gt;" style="text;html=1;strokeColor=none;fillColor=none;align=left;verticalAlign=middle;whiteSpace=wrap;rounded=0;fontSize=28;fontFamily=Architects Daughter;fontStyle=2" vertex="1" parent="1">
          <mxGeometry x="907" y="729" width="280" height="30" as="geometry" />
        </mxCell>
      </root>
    </mxGraphModel>
  </diagram>
</mxfile>
